<?xml version="1.0" standalone="no"?>
<!DOCTYPE svg PUBLIC "-//W3C//DTD SVG 20010904//EN"
 "http://www.w3.org/TR/2001/REC-SVG-20010904/DTD/svg10.dtd">
<svg version="1.0" xmlns="http://www.w3.org/2000/svg"
 width="512.000000pt" height="512.000000pt" viewBox="0 0 512.000000 512.000000"
 preserveAspectRatio="xMidYMid meet">
<metadata>
Created by potrace 1.15, written by Peter Selinger 2001-2017
</metadata>
<g transform="translate(0.000000,512.000000) scale(0.100000,-0.100000)"
fill="#ffffff" stroke="none">
<path d="M2536 4424 c-88 -113 -252 -411 -296 -540 -11 -31 -19 -58 -18 -59 2
-2 37 -29 78 -62 326 -258 731 -772 951 -1206 82 -161 146 -316 182 -442 35
-120 53 -223 41 -234 -26 -25 -353 -150 -486 -186 l-88 -24 0 180 0 179 -165
0 -165 0 0 -204 0 -203 -92 -7 c-50 -3 -108 -6 -130 -6 l-38 0 0 210 0 210
-165 0 -165 0 0 -205 0 -205 -32 0 c-18 0 -127 7 -243 15 -231 16 -473 19
-493 6 -8 -5 -30 -111 -57 -282 -25 -151 -45 -277 -45 -280 0 -9 163 -66 225
-79 76 -17 302 -38 483 -46 l162 -7 0 -153 0 -154 165 0 165 0 0 160 0 160 48
0 c26 0 84 3 130 7 l82 6 0 -167 0 -166 165 0 165 0 0 188 0 187 83 19 c465
103 797 331 940 645 214 473 23 1180 -511 1885 -132 175 -422 537 -506 631
-143 161 -280 285 -315 285 -6 0 -31 -25 -55 -56z"/>
</g>
</svg>
